G04 ================== begin FILE IDENTIFICATION RECORD ==================*
G04 Layout Name:  c:/cadence_circuitos/sensoraire/sensorcalidad.brd*
G04 Film Name:    GND*
G04 File Format:  Gerber RS274X*
G04 File Origin:  Cadence Allegro 25.1-S010*
G04 Origin Date:  Tue May 12 18:08:58 2026*
G04 *
G04 Layer:  ETCH/GND*
G04 Layer:  PIN/GND*
G04 Layer:  VIA CLASS/GND*
G04 *
G04 Offset:    (0.0000 0.0000)*
G04 Mirror:    No*
G04 Mode:      Positive*
G04 Rotation:  0*
G04 FullContactRelief:  No*
G04 UndefLineWidth:     0.0000*
G04 ================== end FILE IDENTIFICATION RECORD ====================*
%FSLAX25Y25*MOMM*%
%IR0*IPPOS*OFA0.00000B0.00000*MIA0B0*SFA1.00000B1.00000*%
%ADD12C,.6101*%
%ADD11C,.7099*%
%ADD14C,3.81*%
%ADD17C,2.159*%
%ADD13C,1.5751*%
%ADD10O,1.1001X1.5999*%
%ADD19C,1.397*%
%ADD16C,1.4729*%
%ADD18R,2.159X2.159*%
%ADD15R,1.4729X1.4729*%
%ADD20C,.127*%
%ADD23C,.8646*%
%ADD22C,5.0004*%
%ADD24C,1.1162*%
%ADD28C,2.4134*%
%ADD26C,1.6514*%
%ADD25C,1.7274*%
%ADD21O,1.3544X1.8542*%
%ADD27C,1.8296*%
G75*
%LPD*%
G75*
G36*
G01X35804910Y21075100D02*
G02X40322500Y25474190I4517590J-120096D01*
G02Y16435810I0J-4519190D01*
G02X35809910Y20710860I0J4519189D01*
G02X35818940Y20721550I10194J548D01*
G03X35857230Y20764500I-4944J42950D01*
G03X35815300Y20807710I-43230J0D01*
G02X35805400Y20817610I305J10205D01*
G02X35803310Y20955000I4517099J137426D01*
G02X35803330Y20967990I4519189J-463D01*
G02X35813630Y20978170I10209J-28D01*
G01X35814000D01*
G03X35857230Y21021400I0J43230D01*
G03X35814900Y21064620I-43229J0D01*
G02X35804910Y21075100I215J10206D01*
G37*
%LPC*%
G75*
G36*
G01X41344830Y23831550D02*
Y24047450D01*
G02X41357550Y24060170I12720J0D01*
G01X41573450D01*
G02X41586170Y24047450I0J-12720D01*
G01Y23831550D01*
G02X41573450Y23818830I-12720J0D01*
G01X41357550D01*
G02X41344830Y23831550I0J12720D01*
G37*
G36*
G01X41823640Y20500360D02*
Y20647640D01*
G02X41836360Y20660360I12715J5D01*
G01X41983640D01*
G02X41996360Y20647640I5J-12715D01*
G01Y20500360D01*
G02X41983640Y20487640I-12715J-5D01*
G01X41836360D01*
G02X41823640Y20500360I-5J12715D01*
G37*
G36*
G01X39537640Y20246360D02*
Y20393640D01*
G02X39550360Y20406360I12715J5D01*
G01X39697640D01*
G02X39710360Y20393640I5J-12715D01*
G01Y20246360D01*
G02X39697640Y20233640I-12715J-5D01*
G01X39550360D01*
G02X39537640Y20246360I-5J12715D01*
G37*
G36*
G01X40863620Y20223760D02*
G03X40860420Y20240430I-7174J7265D01*
G02X40807630Y20320000I33573J79570D01*
G02X40980370I86370J0D01*
G02X40927580Y20240430I-86363J0D01*
G03X40924380Y20223760I3974J-9405D01*
G02X40937230Y20193000I-30391J-30760D01*
G02X40850770I-43230J0D01*
G02X40863620Y20223760I43241J0D01*
G37*
G36*
G01X40596070Y20660360D02*
G03X40604460Y20676390I-2J10212D01*
G02X40596770Y20701000I35534J24610D01*
G02X40683230I43230J0D01*
G02X40675540Y20676390I-43224J0D01*
G03X40683930Y20660360I8392J-5818D01*
G01X40713640D01*
G02X40726360Y20647640I5J-12715D01*
G01Y20500360D01*
G02X40713640Y20487640I-12715J-5D01*
G01X40566360D01*
G02X40553640Y20500360I-5J12715D01*
G01Y20647640D01*
G02X40566360Y20660360I12715J5D01*
G01X40596070D01*
G37*
G36*
G01X41129290Y21922630D02*
G03X41120690Y21935120I-9931J2368D01*
G02X41083130Y21977980I5674J42860D01*
G02X41169590I43230J0D01*
G02X41168410Y21967960I-43229J11D01*
G03X41177010Y21955470I9931J-2368D01*
G02X41214570Y21912610I-5674J-42860D01*
G02X41128110I-43230J0D01*
G02X41129290Y21922630I43229J-11D01*
G37*
G36*
G01X38764520Y22124730D02*
G03X38761370Y22140010I-8022J6311D01*
G02X38738760Y22178010I20628J38000D01*
G02X38825220I43230J0D01*
G02X38815970Y22151280I-43232J-5D01*
G03X38819120Y22136000I8022J-6311D01*
G02X38841730Y22098000I-20628J-38000D01*
G02X38755270I-43230J0D01*
G02X38764520Y22124730I43232J5D01*
G37*
G36*
G01X37508370Y22822930D02*
G03X37492530Y22826670I-9337J-4132D01*
G02X37465000Y22816770I-27530J33328D01*
G02Y22903230I0J43230D01*
G02X37492530Y22893330I0J-43228D01*
G03X37508370Y22897070I6503J7872D01*
G02X37592000Y22951480I83630J-37066D01*
G02Y22768520I0J-91480D01*
G02X37508370Y22822930I0J91476D01*
G37*
G36*
G01X41439920Y21698480D02*
G02X41400860Y21673770I-39060J18517D01*
G02Y21760230I0J43230D01*
G02X41439920Y21735520I0J-43227D01*
G03X41458380I9230J4368D01*
G02X41497440Y21760230I39060J-18517D01*
G02Y21673770I0J-43230D01*
G02X41458380Y21698480I0J43227D01*
G03X41439920I-9230J-4368D01*
G37*
G54D23*
X37592000Y19621500D03*
X37719000D03*
X37846000D03*
X37973000D03*
X36115780Y20916490D03*
X36020220Y20866510D03*
X36322000Y21016490D03*
Y20764500D03*
X40957500D03*
X40322500Y21398360D03*
X40386000Y21494940D03*
X41211500Y21526500D03*
X37274500Y22003000D03*
X37338000Y22098000D03*
X38608000Y21910470D03*
X40322500Y22098000D03*
X40640000Y21844000D03*
Y22098000D03*
X40830500D03*
X41084500Y21844000D03*
X41021000Y21717000D03*
X41319450Y21844000D03*
X41211500Y21780500D03*
X41656000Y22098000D03*
X41655990Y21844000D03*
X42227500D03*
Y22098000D03*
X36576000Y22352000D03*
X36957000Y22542500D03*
X37338000Y22225000D03*
X37846000Y22193000D03*
X38417500Y22225000D03*
X40767000Y22288500D03*
Y22479000D03*
Y22606000D03*
X41529000Y22352000D03*
Y22479000D03*
Y22225000D03*
X42227500Y22352000D03*
X40894000Y22733000D03*
X41084500D03*
X42227500Y23050500D03*
X41783000Y23876000D03*
G54D22*
X43180000Y18796000D03*
X37846000Y23876000D03*
G54D24*
X36068000Y20491500D03*
Y21291500D03*
G54D28*
X39433500Y23939500D03*
G54D26*
X43815000Y20320000D03*
G54D25*
X39878000D03*
X40132000D03*
X40386000D03*
X40640000D03*
X41148000D03*
X41402000D03*
X41656000D03*
X41910000D03*
X42164000D03*
X42418000D03*
X39624000Y20574000D03*
X39878000D03*
X40132000D03*
X40386000D03*
X40894000D03*
X41148000D03*
X41402000D03*
X41656000D03*
X42164000D03*
X42418000D03*
G54D21*
X36211000Y21291500D03*
X35925000D03*
X36211000Y20491500D03*
X35925000D03*
G54D27*
X38100000Y22860000D03*
%LPD*%
G75*
G54D10*
X35925000Y20491500D03*
Y21291500D03*
X36211000Y20491500D03*
Y21291500D03*
G54D20*
G01X26797000Y24066500D02*
X27432000D01*
G01X26924000Y25590500D02*
X26860500D01*
G01X27363340Y22970580D02*
X27299840D01*
G01X27005460Y25128020D02*
X26987500Y25110060D01*
Y25082500D01*
G01X28003500Y21526500D02*
X27940000Y21463000D01*
G01X27876500Y22923500D02*
X28003500D01*
G01X28511500Y20637500D02*
X28384500D01*
G01X28130500Y22225000D02*
X28257500D01*
G01X28702000Y23050500D02*
X28765500Y23114000D01*
G01X28787390Y24893130D02*
X28723890Y24829630D01*
G01X29273500Y20002500D02*
X29210000Y20129500D01*
G01X29273500Y24130000D02*
Y24066500D01*
G01X30226000Y24955500D02*
X30162500D01*
G01X31242000Y24701500D02*
Y24765000D01*
G01X35925000Y20491500D02*
X35877500Y20447000D01*
G01X35925000Y20393680D02*
Y20491500D01*
G01X35941000Y20955000D02*
Y20957920D01*
X35927080Y20971840D01*
X35814000D01*
G01X35925000Y20491500D02*
Y20589320D01*
G01X35852170Y20491500D02*
X35925000D01*
G01D02*
X35997830D01*
G01X35925000Y21193680D02*
Y21291500D01*
G01D02*
Y21389320D01*
G01X35852170Y21291500D02*
X35925000D01*
G01D02*
X35997830D01*
G01X36211000Y20393680D02*
Y20491500D01*
G01D02*
Y20589320D01*
G01X36138170Y20491500D02*
X36211000D01*
G01D02*
X36283830D01*
G01X36211000Y21193680D02*
Y21291500D01*
G01D02*
Y21389320D01*
G01X36138170Y21291500D02*
X36211000D01*
G01D02*
X36283830D01*
G01X37719000Y20764500D02*
Y20701000D01*
G01X38100000Y22763420D02*
Y22860000D01*
G01D02*
Y22956580D01*
G01X38003420Y22860000D02*
X38100000D01*
G01D02*
X38196580D01*
G01X39624000Y20482530D02*
Y20574000D01*
G01D02*
Y20665470D01*
G01X39532530Y20574000D02*
X39624000D01*
G01D02*
X39715470D01*
G01X40132000Y20228530D02*
Y20320000D01*
G01D02*
Y20411470D01*
G01X40040530Y20320000D02*
X40132000D01*
G01D02*
X40223470D01*
G01X40386000Y20482530D02*
Y20574000D01*
G01D02*
Y20665470D01*
G01X40294530Y20574000D02*
X40386000D01*
G01D02*
X40477470D01*
G01X41148000Y21069300D02*
Y21082000D01*
G01X41910000Y20482530D02*
Y20574000D01*
G01D02*
Y20665470D01*
G01X41818530Y20574000D02*
X41910000D01*
G01D02*
X42001470D01*
G54D11*
X36068000Y20491500D03*
Y21291500D03*
G54D12*
X35941000Y20383500D03*
X36020220Y20866510D03*
X36115780Y20916490D03*
X35814000Y20574000D03*
Y20947680D03*
Y21021400D03*
Y20764500D03*
X35941000Y21399500D03*
X35814000Y21145500D03*
X36195000Y20383500D03*
X36385500Y20816490D03*
X36322000Y20574000D03*
Y21016490D03*
Y20764500D03*
X36263380Y21394620D03*
X36322000Y21209000D03*
X36576000Y22352000D03*
X36703000Y20828000D03*
X37211000Y21145500D03*
X36957000Y22542500D03*
Y22352000D03*
X37592000Y19621500D03*
X37719000D03*
X37592000Y20383500D03*
X37274500Y22003000D03*
X37338000Y22098000D03*
Y22225000D03*
X37465000Y22860000D03*
X37846000Y19113500D03*
Y19621500D03*
X37973000D03*
X37846000Y20383500D03*
Y20891500D03*
Y22193000D03*
X38163500Y22860000D03*
X38544500Y19558000D03*
X38417500Y22098000D03*
X38608000D03*
Y21910470D03*
X38798500Y22098000D03*
X38781990Y22178010D03*
X38417500Y22225000D03*
X38798500Y23241000D03*
X39624000Y20891500D03*
X40195500Y19812000D03*
X40132000Y20002500D03*
X40386000Y20891500D03*
X40322500Y21398360D03*
X40386000Y21494940D03*
X40322500Y22098000D03*
X40195500Y22352000D03*
X40894000Y20193000D03*
X40957500Y20764500D03*
X40640000Y20701000D03*
Y21844000D03*
Y22098000D03*
X40830500D03*
X40576500Y22288500D03*
Y22606000D03*
Y22479000D03*
X40767000Y22288500D03*
Y22479000D03*
Y22606000D03*
X40894000Y22923500D03*
Y22733000D03*
X41021000Y21018500D03*
X41211500Y21526500D03*
X41497440Y21717000D03*
X41400860D03*
X41084500Y21844000D03*
X41319450D03*
X41126360Y21977980D03*
X41021000Y21717000D03*
X41211500Y21780500D03*
X41171340Y21912610D03*
X41148000Y22352000D03*
X41084500Y22923500D03*
Y22733000D03*
X41656000Y20891500D03*
X41910000D03*
X41973500Y21082000D03*
X41655990Y21844000D03*
X41656000Y22098000D03*
X41529000Y22352000D03*
X41719500Y22225000D03*
Y22479000D03*
X41529000D03*
Y22225000D03*
X41889710Y23832790D03*
X41783000Y23876000D03*
X42227500Y21844000D03*
Y22098000D03*
Y22352000D03*
Y23050500D03*
X42100500Y23304500D03*
X43370500Y22098000D03*
Y21780500D03*
Y22352000D03*
G54D13*
X37592000Y22860000D03*
X38100000D03*
G54D14*
X37846000Y23876000D03*
X43180000Y18796000D03*
G54D15*
X39624000Y20320000D03*
X40640000Y20574000D03*
X41910000D03*
G54D16*
X39878000Y20320000D03*
X39624000Y20574000D03*
X39878000D03*
X40132000Y20320000D03*
X40386000D03*
X40132000Y20574000D03*
X40386000D03*
X40640000Y20320000D03*
X40894000D03*
Y20574000D03*
X41148000Y20320000D03*
X41402000D03*
X41148000Y20574000D03*
X41402000D03*
X41656000Y20320000D03*
X41910000D03*
X41656000Y20574000D03*
X42164000Y20320000D03*
X42418000D03*
X42164000Y20574000D03*
X42418000D03*
G54D17*
X39433500Y23939500D03*
G54D18*
X41465500D03*
G54D19*
X43815000Y20320000D03*
M02*
