G04 ================== begin FILE IDENTIFICATION RECORD ==================*
G04 Layout Name:  c:/cadence_circuitos/sensoraire/sensorcalidad.brd*
G04 Film Name:    POTENCIA*
G04 File Format:  Gerber RS274X*
G04 File Origin:  Cadence Allegro 25.1-S010*
G04 Origin Date:  Tue May 12 18:08:58 2026*
G04 *
G04 Layer:  ETCH/POTENCIA*
G04 Layer:  PIN/POTENCIA*
G04 Layer:  VIA CLASS/POTENCIA*
G04 *
G04 Offset:    (0.0000 0.0000)*
G04 Mirror:    No*
G04 Mode:      Positive*
G04 Rotation:  0*
G04 FullContactRelief:  No*
G04 UndefLineWidth:     0.0000*
G04 ================== end FILE IDENTIFICATION RECORD ====================*
%FSLAX25Y25*MOMM*%
%IR0*IPPOS*OFA0.00000B0.00000*MIA0B0*SFA1.00000B1.00000*%
%ADD12C,.6101*%
%ADD11C,.7099*%
%ADD14C,3.81*%
%ADD17C,2.159*%
%ADD13C,1.5751*%
%ADD10O,1.1001X1.5999*%
%ADD19C,1.397*%
%ADD16C,1.4729*%
%ADD18R,2.159X2.159*%
%ADD15R,1.4729X1.4729*%
%ADD20C,.127*%
%ADD21C,.8646*%
%ADD23C,1.7274*%
%ADD22C,1.8296*%
G75*
%LPD*%
G75*
G36*
G01X37147500Y21907500D02*
Y19812000D01*
X38417500D01*
Y19177000D01*
X36449000D01*
Y23050500D01*
X36512500Y23114000D01*
X37719000D01*
Y22669500D01*
X37274500D01*
X37211000Y22606000D01*
Y22352000D01*
X37592000D01*
Y22161500D01*
X37211000D01*
Y22034500D01*
X37592000D01*
Y21971000D01*
X37211000D01*
X37147500Y21907500D01*
G37*
G36*
G01X41338500Y24193500D02*
X41846500D01*
Y23834030D01*
G03X41846480Y23832790I43209J-1317D01*
G03X41846500Y23831550I43229J77D01*
G01Y23495000D01*
X42354500D01*
Y22606000D01*
X41338500D01*
Y22542500D01*
X41592500D01*
Y22415500D01*
X41338500D01*
Y22288500D01*
X41592500D01*
Y21272500D01*
X41783000D01*
Y20129500D01*
X40513000D01*
Y20828000D01*
X40703500D01*
Y20701000D01*
X40767000Y20637500D01*
X40813450D01*
G02X40821970Y20621660I3J-10210D01*
G03X40807630Y20574000I72031J-47660D01*
G03X40980370I86370J0D01*
G03X40966030Y20621660I-86371J0D01*
G02X40974550Y20637500I8517J5630D01*
G01X41067450D01*
G02X41075970Y20621660I3J-10210D01*
G03X41061630Y20574000I72031J-47660D01*
G03X41148000Y20660370I86370J0D01*
G03X41100340Y20646030I0J-86371D01*
G02X41084500Y20654550I-5630J8517D01*
G01Y21653500D01*
X41211500D01*
X41275000Y21717000D01*
Y21802970D01*
G02X41291750Y21810810I10210J1D01*
G03X41319450Y21800770I27700J33192D01*
G03Y21887230I0J43230D01*
G03X41291750Y21877190I0J-43232D01*
G02X41275000Y21885030I-6540J7839D01*
G01Y22161500D01*
X40513000D01*
Y21971000D01*
X38735000D01*
X38671500Y22034500D01*
X37604720D01*
Y22047220D01*
X37274500D01*
Y22148780D01*
X37604720D01*
Y22352000D01*
X40152030D01*
X40152510Y22347430D01*
G03X40238490I42990J4572D01*
G01X40238970Y22352000D01*
X40703500D01*
Y22796500D01*
X41338500D01*
Y23810390D01*
G02X41352650Y23819810I10209J2D01*
G03X41357550Y23818830I4896J11741D01*
G01X41573450D01*
G03X41586170Y23831550I0J12720D01*
G01Y24047450D01*
G03X41573450Y24060170I-12720J0D01*
G01X41357550D01*
G03X41352650Y24059190I-4J-12721D01*
G02X41338500Y24068610I-3941J9418D01*
G01Y24193500D01*
G37*
%LPC*%
G75*
G36*
G01X40553640Y20500360D02*
Y20647640D01*
G02X40566360Y20660360I12715J5D01*
G01X40713640D01*
G02X40726360Y20647640I5J-12715D01*
G01Y20500360D01*
G02X40713640Y20487640I-12715J-5D01*
G01X40566360D01*
G02X40553640Y20500360I-5J12715D01*
G37*
G36*
G01X41439920Y21698480D02*
G02X41400860Y21673770I-39060J18517D01*
G02Y21760230I0J43230D01*
G02X41439920Y21735520I0J-43227D01*
G03X41458380I9230J4368D01*
G02X41497440Y21760230I39060J-18517D01*
G02Y21673770I0J-43230D01*
G02X41458380Y21698480I0J43227D01*
G03X41439920I-9230J-4368D01*
G37*
G54D21*
X36703000Y20828000D03*
X36957000Y22352000D03*
X41656000Y20891500D03*
X38608000Y22098000D03*
X38417500D03*
X38781990Y22178010D03*
X40576500Y22288500D03*
X41148000Y22352000D03*
X42100500Y23304500D03*
G54D23*
X40640000Y20320000D03*
X40894000D03*
X41148000D03*
X41402000D03*
X41656000D03*
X41402000Y20574000D03*
X41656000D03*
G54D22*
X37592000Y22860000D03*
%LPD*%
G75*
G54D10*
X35925000Y20491500D03*
Y21291500D03*
X36211000Y20491500D03*
Y21291500D03*
G54D20*
G01X37592000Y22763420D02*
Y22860000D01*
G01D02*
Y22956580D01*
G01X37495420Y22860000D02*
X37592000D01*
G01D02*
X37688580D01*
G01X40894000Y20228530D02*
Y20320000D01*
G01D02*
Y20411470D01*
G01X40802530Y20320000D02*
X40894000D01*
G01D02*
X40985470D01*
G01X40640000Y20482530D02*
Y20574000D01*
G01D02*
Y20665470D01*
G01X40548530Y20574000D02*
X40640000D01*
G01D02*
X40731470D01*
G01X40640000Y21844000D02*
X41084500D01*
G01X40957500Y20764500D02*
Y21653500D01*
X41021000Y21717000D01*
G01X41465500Y23813730D02*
Y23939500D01*
G01D02*
Y24065270D01*
G01Y23939500D02*
X41591270D01*
G01X41655990Y21844000D02*
X42227500D01*
G01Y22352000D02*
X41529000D01*
G01X42227500Y22098000D02*
X41656000D01*
G54D11*
X36068000Y20491500D03*
Y21291500D03*
G54D12*
X35941000Y20383500D03*
X36020220Y20866510D03*
X36115780Y20916490D03*
X35814000Y20574000D03*
Y20947680D03*
Y21021400D03*
Y20764500D03*
X35941000Y21399500D03*
X35814000Y21145500D03*
X36195000Y20383500D03*
X36385500Y20816490D03*
X36322000Y20574000D03*
Y21016490D03*
Y20764500D03*
X36263380Y21394620D03*
X36322000Y21209000D03*
X36576000Y22352000D03*
X36703000Y20828000D03*
X37211000Y21145500D03*
X36957000Y22542500D03*
Y22352000D03*
X37592000Y19621500D03*
X37719000D03*
X37592000Y20383500D03*
X37274500Y22003000D03*
X37338000Y22098000D03*
Y22225000D03*
X37465000Y22860000D03*
X37846000Y19113500D03*
Y19621500D03*
X37973000D03*
X37846000Y20383500D03*
Y20891500D03*
Y22193000D03*
X38163500Y22860000D03*
X38544500Y19558000D03*
X38417500Y22098000D03*
X38608000D03*
Y21910470D03*
X38798500Y22098000D03*
X38781990Y22178010D03*
X38417500Y22225000D03*
X38798500Y23241000D03*
X39624000Y20891500D03*
X40195500Y19812000D03*
X40132000Y20002500D03*
X40386000Y20891500D03*
X40322500Y21398360D03*
X40386000Y21494940D03*
X40322500Y22098000D03*
X40195500Y22352000D03*
X40894000Y20193000D03*
X40957500Y20764500D03*
X40640000Y20701000D03*
Y21844000D03*
Y22098000D03*
X40830500D03*
X40576500Y22288500D03*
Y22606000D03*
Y22479000D03*
X40767000Y22288500D03*
Y22479000D03*
Y22606000D03*
X40894000Y22923500D03*
Y22733000D03*
X41021000Y21018500D03*
X41211500Y21526500D03*
X41497440Y21717000D03*
X41400860D03*
X41084500Y21844000D03*
X41319450D03*
X41126360Y21977980D03*
X41021000Y21717000D03*
X41211500Y21780500D03*
X41171340Y21912610D03*
X41148000Y22352000D03*
X41084500Y22923500D03*
Y22733000D03*
X41656000Y20891500D03*
X41910000D03*
X41973500Y21082000D03*
X41655990Y21844000D03*
X41656000Y22098000D03*
X41529000Y22352000D03*
X41719500Y22225000D03*
Y22479000D03*
X41529000D03*
Y22225000D03*
X41889710Y23832790D03*
X41783000Y23876000D03*
X42227500Y21844000D03*
Y22098000D03*
Y22352000D03*
Y23050500D03*
X42100500Y23304500D03*
X43370500Y22098000D03*
Y21780500D03*
Y22352000D03*
G54D13*
X37592000Y22860000D03*
X38100000D03*
G54D14*
X37846000Y23876000D03*
X43180000Y18796000D03*
G54D15*
X39624000Y20320000D03*
X40640000Y20574000D03*
X41910000D03*
G54D16*
X39878000Y20320000D03*
X39624000Y20574000D03*
X39878000D03*
X40132000Y20320000D03*
X40386000D03*
X40132000Y20574000D03*
X40386000D03*
X40640000Y20320000D03*
X40894000D03*
Y20574000D03*
X41148000Y20320000D03*
X41402000D03*
X41148000Y20574000D03*
X41402000D03*
X41656000Y20320000D03*
X41910000D03*
X41656000Y20574000D03*
X42164000Y20320000D03*
X42418000D03*
X42164000Y20574000D03*
X42418000D03*
G54D17*
X39433500Y23939500D03*
G54D18*
X41465500D03*
G54D19*
X43815000Y20320000D03*
M02*
