G04 ================== begin FILE IDENTIFICATION RECORD ==================*
G04 Layout Name:  c:/cadence_circuitos/sensoraire/sensorcalidad.brd*
G04 Film Name:    TOP*
G04 File Format:  Gerber RS274X*
G04 File Origin:  Cadence Allegro 25.1-S010*
G04 Origin Date:  Tue May 12 18:08:58 2026*
G04 *
G04 Layer:  ETCH/TOP*
G04 Layer:  PIN/TOP*
G04 Layer:  VIA CLASS/TOP*
G04 *
G04 Offset:    (0.0000 0.0000)*
G04 Mirror:    No*
G04 Mode:      Positive*
G04 Rotation:  0*
G04 FullContactRelief:  No*
G04 UndefLineWidth:     0.0000*
G04 ================== end FILE IDENTIFICATION RECORD ====================*
%FSLAX25Y25*MOMM*%
%IR0*IPPOS*OFA0.00000B0.00000*MIA0B0*SFA1.00000B1.00000*%
%ADD13R,1.1501X.3*%
%ADD12C,.6101*%
%ADD17R,.635X1.27*%
%AMMACRO21*
4,1,5,-.6251,-.8499,
-.6251,.5499,
-.3251,.8499,
.6251,.8499,
.6251,-.8499,
-.6251,-.8499,
0.0*
%
%ADD21MACRO21*%
%ADD11C,.7099*%
%ADD16R,.5591X.5591*%
%AMMACRO18*
4,1,40,.6299,-.3,
-.6299,-.3,
-.63772,-.29931,
-.645301,-.297272,
-.652413,-.293949,
-.65884,-.289442,
-.664386,-.283887,
-.668884,-.277453,
-.672196,-.270336,
-.674222,-.262752,
-.6749,-.255,
-.6749,.255,
-.67421,.26282,
-.672172,.270401,
-.668849,.277513,
-.664342,.28394,
-.658787,.289486,
-.652353,.293984,
-.645236,.297296,
-.637652,.299322,
-.6299,.3,
.6299,.3,
.63772,.29931,
.645301,.297272,
.652413,.293949,
.65884,.289442,
.664386,.283887,
.668884,.277453,
.672196,.270336,
.674222,.262752,
.6749,.255,
.6749,-.255,
.67421,-.26282,
.672172,-.270401,
.668849,-.277513,
.664342,-.28394,
.658787,-.289486,
.652353,-.293984,
.645236,-.297296,
.637652,-.299322,
.6299,-.3,
0.0*
%
%ADD18MACRO18*%
%ADD30R,3.3X3.3*%
%ADD29R,.22X.81*%
%ADD28R,.81X.22*%
%ADD32C,1.524*%
%ADD24R,1.268X1.018*%
%ADD20C,4.064*%
%ADD27C,2.159*%
%ADD15R,1.27X1.27*%
%ADD19C,1.5751*%
%ADD14R,1.524X1.524*%
%ADD10O,1.1001X1.5999*%
%ADD26C,1.4729*%
%ADD22R,.5499X.4*%
%ADD31R,2.159X2.159*%
%ADD25R,1.4729X1.4729*%
%ADD33C,.127*%
G75*
%LPD*%
G75*
G54D10*
X35925000Y20491500D03*
Y21291500D03*
X36211000Y20491500D03*
Y21291500D03*
G54D20*
X37846000Y23876000D03*
X43180000Y18796000D03*
G54D11*
X36068000Y20491500D03*
Y21291500D03*
G54D30*
X41148000Y22352000D03*
G54D21*
X38608000Y22098000D03*
G54D12*
X35941000Y20383500D03*
X36020220Y20866510D03*
X36115780Y20916490D03*
X35814000Y20574000D03*
Y20947680D03*
Y21021400D03*
Y20764500D03*
X35941000Y21399500D03*
X35814000Y21145500D03*
X36195000Y20383500D03*
X36385500Y20816490D03*
X36322000Y20574000D03*
Y21016490D03*
Y20764500D03*
X36263380Y21394620D03*
X36322000Y21209000D03*
X36576000Y22352000D03*
X36703000Y20828000D03*
X37211000Y21145500D03*
X36957000Y22542500D03*
Y22352000D03*
X37592000Y19621500D03*
X37719000D03*
X37592000Y20383500D03*
X37274500Y22003000D03*
X37338000Y22098000D03*
Y22225000D03*
X37465000Y22860000D03*
X37846000Y19113500D03*
Y19621500D03*
X37973000D03*
X37846000Y20383500D03*
Y20891500D03*
Y22193000D03*
X38163500Y22860000D03*
X38544500Y19558000D03*
X38417500Y22098000D03*
X38608000D03*
Y21910470D03*
X38798500Y22098000D03*
X38781990Y22178010D03*
X38417500Y22225000D03*
X38798500Y23241000D03*
X39624000Y20891500D03*
X40195500Y19812000D03*
X40132000Y20002500D03*
X40386000Y20891500D03*
X40322500Y21398360D03*
X40386000Y21494940D03*
X40322500Y22098000D03*
X40195500Y22352000D03*
X40894000Y20193000D03*
X40957500Y20764500D03*
X40640000Y20701000D03*
Y21844000D03*
Y22098000D03*
X40830500D03*
X40576500Y22288500D03*
Y22606000D03*
Y22479000D03*
X40767000Y22288500D03*
Y22479000D03*
Y22606000D03*
X40894000Y22923500D03*
Y22733000D03*
X41021000Y21018500D03*
X41211500Y21526500D03*
X41497440Y21717000D03*
X41400860D03*
X41084500Y21844000D03*
X41319450D03*
X41126360Y21977980D03*
X41021000Y21717000D03*
X41211500Y21780500D03*
X41171340Y21912610D03*
X41148000Y22352000D03*
X41084500Y22923500D03*
Y22733000D03*
X41656000Y20891500D03*
X41910000D03*
X41973500Y21082000D03*
X41655990Y21844000D03*
X41656000Y22098000D03*
X41529000Y22352000D03*
X41719500Y22225000D03*
Y22479000D03*
X41529000D03*
Y22225000D03*
X41889710Y23832790D03*
X41783000Y23876000D03*
X42227500Y21844000D03*
Y22098000D03*
Y22352000D03*
Y23050500D03*
X42100500Y23304500D03*
X43370500Y22098000D03*
Y21780500D03*
Y22352000D03*
G54D31*
X41465500Y23939500D03*
G54D22*
X38723010Y22098000D03*
Y22017990D03*
X38492990D03*
Y22098000D03*
X38723010Y22178010D03*
X38492990D03*
G54D13*
X35919510Y21016490D03*
Y20966510D03*
Y20916490D03*
Y20866510D03*
Y20816490D03*
Y20766510D03*
Y20616490D03*
Y21166510D03*
X36216490Y20766510D03*
Y20816490D03*
Y20866510D03*
Y20916490D03*
Y20966510D03*
Y21016490D03*
Y20616490D03*
Y21166510D03*
G54D14*
X36576000Y21844000D03*
Y22174200D03*
X41148000Y21005800D03*
Y21336000D03*
X42227500Y23304500D03*
X42557700D03*
G54D32*
X43815000Y20320000D03*
G36*
G01X38516000Y22959750D02*
X38566800Y22959800D01*
X38566700Y22964020D01*
X38566390Y22968210D01*
X38565810Y22972500D01*
X38565000Y22976720D01*
X38564010Y22980810D01*
X38562810Y22984900D01*
X38561390Y22988910D01*
X38559790Y22992800D01*
X38557910Y22996710D01*
X38555900Y23000420D01*
X38553690Y23004000D01*
X38551310Y23007500D01*
X38548690Y23010910D01*
X38545900Y23014210D01*
X38543000Y23017200D01*
X38539900Y23020200D01*
X38536700Y23022890D01*
X38533300Y23025510D01*
X38529790Y23027900D01*
X38526110Y23030210D01*
X38522400Y23032220D01*
X38518590Y23033990D01*
X38514600Y23035700D01*
X38510590Y23037090D01*
X38506500Y23038310D01*
X38502410Y23039300D01*
X38498190Y23040010D01*
X38494000Y23040600D01*
X38489790Y23040900D01*
X38485490Y23041000D01*
Y22990200D01*
X38487090D01*
X38488700Y22990100D01*
X38490300Y22989900D01*
X38491790Y22989590D01*
X38493390Y22989210D01*
X38494890Y22988810D01*
X38497890Y22987610D01*
X38500710Y22986220D01*
X38502110Y22985300D01*
X38504700Y22983500D01*
X38507110Y22981310D01*
X38508200Y22980200D01*
X38509190Y22978900D01*
X38510210Y22977710D01*
X38511100Y22976410D01*
X38512700Y22973590D01*
X38513410Y22972200D01*
X38513990Y22970700D01*
X38514500Y22969200D01*
X38515010Y22967600D01*
X38515290Y22966100D01*
X38515590Y22964500D01*
X38516000Y22961300D01*
Y22959750D01*
G37*
G54D33*
G01X35925000Y20491500D02*
Y20399500D01*
X35941000Y20383500D01*
G01X35919510Y20916490D02*
X36036400D01*
X36036830Y20916060D01*
X36040770D01*
X36051390Y20905440D01*
X36056720D01*
X36095230Y20866940D01*
X36110960D01*
X36110970Y20866930D01*
X36139510D01*
X36139930Y20866510D01*
X36216490D01*
G01X36020220D02*
X35919510D01*
G01X37020500Y20828000D02*
Y20650200D01*
X37007800Y20637500D01*
X36294950D01*
X36231450Y20701000D01*
X35777140D01*
X35764440Y20713700D01*
Y20801360D01*
X35779580Y20816490D01*
X35919510D01*
G01Y20616490D02*
X35842960D01*
X35814000Y20587540D01*
Y20574000D01*
G01Y20947680D02*
Y20955000D01*
X35825510Y20966510D01*
X35919510D01*
G01X35814000Y20764500D02*
X35877500D01*
G01X35941000Y21399500D02*
Y21307500D01*
X35925000Y21291500D01*
G01X35919510Y21166510D02*
X35835010D01*
X35814000Y21145500D01*
G01X35919510Y21016490D02*
X35818900D01*
X35814000Y21021400D01*
G01X36211000Y20491500D02*
Y20399500D01*
X36195000Y20383500D01*
G01X40322500Y21398360D02*
Y21416020D01*
X40308220Y21430300D01*
X38036500D01*
X37636450Y21030250D01*
X36745050D01*
X36725990Y21049310D01*
X36621410D01*
X36608700Y21036600D01*
Y20941450D01*
X36542400Y20875150D01*
X36225130D01*
X36216490Y20866510D01*
G01X40386000Y21494940D02*
X40340160D01*
X40308220Y21463000D01*
X38022950D01*
X37622900Y21062950D01*
X36758600D01*
X36739540Y21082010D01*
X36607860D01*
X36576000Y21050150D01*
Y20955000D01*
X36528850Y20907850D01*
X36225130D01*
X36216490Y20916490D01*
G01X36115780D02*
X36216490D01*
G01X36830000Y21145500D02*
X36395800D01*
X36383100Y21132800D01*
Y20979630D01*
X36370400Y20966930D01*
X36306370D01*
X36305950Y20966510D01*
X36216490D01*
G01Y20616490D02*
X36258980D01*
X36301480Y20574000D01*
X36322000D01*
G01X36216490Y20816490D02*
X36385500D01*
G01X36216490Y20766510D02*
X36319990D01*
X36322000Y20764500D01*
G01X36211000Y21291500D02*
Y21316490D01*
X36263380Y21368870D01*
Y21394620D01*
G01X36216490Y21166510D02*
X36293040D01*
X36322000Y21195460D01*
Y21209000D01*
G01X36216490Y21016490D02*
X36322000D01*
G01X36576000Y22174200D02*
Y22352000D01*
G01X36807090Y20828000D02*
X36703000D01*
G01X37043410Y21145500D02*
X37211000D01*
G01X36957000Y22479000D02*
Y22542500D01*
G01Y22372290D02*
Y22352000D01*
G01X38354000Y20574000D02*
X38227000Y20447000D01*
Y19558000D01*
X38163500Y19494500D01*
X37528500D01*
X37338000Y19304000D01*
G01X37592000Y19754900D02*
Y19621500D01*
G01Y20250100D02*
Y20383500D01*
G01X37473510Y22003000D02*
X37274500D01*
G01X37473510Y22193000D02*
X37370000D01*
X37338000Y22225000D01*
G01X37473510Y22098000D02*
X37338000D01*
G01X37846000Y19197290D02*
Y19113500D01*
G01X37719000Y19754900D02*
Y19621500D01*
G01X37846000Y19754900D02*
Y19621500D01*
G01X37973000Y19754900D02*
Y19621500D01*
G01Y20250100D02*
Y20406410D01*
X38140590Y20574000D01*
G01X37846000Y20250100D02*
Y20383500D01*
G01X37719000Y20250100D02*
Y20447000D01*
X37846000Y20574000D01*
G01Y20787410D02*
Y20891500D01*
G01X37710490Y22193000D02*
X37846000D01*
G01X38100000Y22860000D02*
X38163500D01*
G01X38460710Y19558000D02*
X38544500D01*
G01X38492990Y22017990D02*
X38500480D01*
X38608000Y21910470D01*
G01X38492990Y22098000D02*
X38417500D01*
G01X38723010Y22178010D02*
X38781990D01*
G01X38723010Y22098000D02*
X38798500D01*
G01X38492990Y22178010D02*
X38446430D01*
X38417500Y22206940D01*
Y22225000D01*
G01X38692510Y23018500D02*
X38957510D01*
X40132010Y21844000D01*
X40426590D01*
G01X39433500Y23939500D02*
X39279040D01*
X38523490Y23183950D01*
Y23114000D01*
G01X38692510Y23209500D02*
X38774950D01*
X38798500Y23233050D01*
Y23241000D01*
G01X39624000Y20891500D02*
Y20574000D01*
G01X40279290Y19812000D02*
X40195500D01*
G01X40386000D02*
Y20320000D01*
G01X40132000D02*
Y20002500D01*
G01X40386000Y20574000D02*
Y20891500D01*
G01Y22352000D02*
Y23355300D01*
X40398700Y23368000D01*
X42100500D01*
X42132250Y23399750D01*
X42462450D01*
X42557700Y23304500D01*
G01X40903500Y22411990D02*
X40445990D01*
X40386000Y22352000D01*
G01X40279290D02*
X40195500D01*
G01X40386000Y22098000D02*
X40322500D01*
G01X40903500Y22292010D02*
X40865040D01*
X40767000Y22193960D01*
Y22189900D01*
X40741600Y22164500D01*
Y20866100D01*
X40779700Y20828000D01*
X40832660D01*
X40832680Y20827970D01*
X41084530D01*
X41240710Y20671790D01*
Y20417790D01*
X41309290Y20349210D01*
Y20281600D01*
X41363600Y20227290D01*
X41440400D01*
X41529000Y20315890D01*
Y20375120D01*
X41422830Y20481290D01*
X41363600D01*
X41309290Y20535600D01*
Y20612400D01*
X41363600Y20666710D01*
X41440400D01*
X41494710Y20612400D01*
Y20481290D01*
X41656000Y20320000D01*
G01X40903500Y22252000D02*
X40865040D01*
X40767000Y22153960D01*
Y20929600D01*
X40843200Y20853400D01*
X41126710D01*
X41266110Y20714000D01*
Y20455890D01*
X41402000Y20320000D01*
G01X40640000Y20574000D02*
Y20701000D01*
G01X40660290Y22288500D02*
X40576500D01*
G01X40660290Y22606000D02*
X40576500D01*
G01X40660290Y22479000D02*
X40576500D01*
G01X40599410Y22098000D02*
X40640000D01*
G01X40830500D02*
Y22177450D01*
X40865040Y22212000D01*
X40903500D01*
G01Y22371990D02*
X40860980D01*
X40855570Y22377400D01*
X40834490D01*
X40818540Y22361450D01*
Y22340040D01*
X40767000Y22288500D01*
G01X40903500Y22452000D02*
X40841020D01*
X40814020Y22479000D01*
X40767000D01*
G01Y22606000D02*
X40817800D01*
X40830500Y22593300D01*
Y22505440D01*
X40843940Y22492000D01*
X40903500D01*
G01X40894000Y22839710D02*
Y22923500D01*
G01X40967990Y22596500D02*
Y22659010D01*
X40894000Y22733000D01*
G01X40957500Y20764500D02*
X41055300Y20666700D01*
Y20412700D01*
X41148000Y20320000D01*
G01X41392500Y22411990D02*
X41482950D01*
X41497910Y22426960D01*
X41898540D01*
X41912390Y22413110D01*
Y21073010D01*
X42071290Y20914110D01*
Y20142200D01*
X42058590Y20129500D01*
X41469610D01*
X41397220Y20201890D01*
X41353050D01*
X41283890Y20271050D01*
Y20315220D01*
X41148000Y20451110D01*
Y20574000D01*
G01Y21005800D02*
X41033700D01*
X41021000Y21018500D01*
G01X41402000Y20574000D02*
X41467560Y20508440D01*
Y20485960D01*
X41469310Y20484210D01*
Y20470750D01*
X41554400Y20385660D01*
Y20305340D01*
X41529000Y20279940D01*
Y20167600D01*
X41541700Y20154900D01*
X42024300D01*
X42037000Y20167600D01*
Y20912450D01*
X41886990Y21062470D01*
Y22388860D01*
X41874290Y22401560D01*
X41508450D01*
X41493490Y22386590D01*
X41445560D01*
X41430960Y22371990D01*
X41392500D01*
G01X41148000Y21336000D02*
X41306750D01*
X41319450Y21348700D01*
Y21844000D01*
G01X41211500Y21567090D02*
Y21526500D01*
G01X41497440Y21717000D02*
Y21762840D01*
X41465500Y21794780D01*
Y21848830D01*
X41284350Y22029980D01*
Y22103850D01*
X41288000Y22107500D01*
G01X41400860Y21717000D02*
Y21762840D01*
X41432800Y21794780D01*
Y21835280D01*
X41251650Y22016430D01*
Y22103850D01*
X41248000Y22107500D01*
G01X41084500Y21844000D02*
X41121050D01*
X41140100Y21863050D01*
X41209010D01*
X41221710Y21875750D01*
Y22034220D01*
X41207990Y22047940D01*
Y22107500D01*
G01X41126360Y21977980D02*
Y22027570D01*
X41128010Y22029220D01*
Y22107500D01*
G01X41655990Y21844000D02*
X41531950D01*
X41328010Y22047940D01*
Y22107500D01*
G01X41021000Y21717000D02*
Y21980930D01*
X41088010Y22047940D01*
Y22107500D01*
G01X41171340Y21912610D02*
X41175920Y21917190D01*
Y22047780D01*
X41167990Y22055710D01*
Y22107500D01*
G01X41529000Y22352000D02*
X41465500D01*
X41445510Y22332010D01*
X41392500D01*
G01X41656000Y22098000D02*
X41466490D01*
X41446500Y22117990D01*
Y22147500D01*
X41422020Y22171990D01*
X41392500D01*
G01X41656000Y20574000D02*
X41721560Y20639560D01*
Y22146740D01*
X41706800Y22161500D01*
X41502560D01*
X41452060Y22212000D01*
X41392500D01*
G01Y22292010D02*
X41452060D01*
X41455570Y22288500D01*
X41770300D01*
X41783000Y22275800D01*
Y20354290D01*
X41817290Y20320000D01*
X41910000D01*
G01X41392500Y22452000D02*
X41454980D01*
X41481980Y22479000D01*
X41529000D01*
G01X41392500Y22252000D02*
X41454980D01*
X41481980Y22225000D01*
X41529000D01*
G01X41088010Y22596500D02*
Y22682480D01*
X41084500Y22685980D01*
Y22733000D01*
G01Y22839710D02*
Y22923500D01*
G01X41656000Y20975290D02*
Y20891500D01*
G01X41910000Y20574000D02*
Y20891500D01*
G01X42057290Y21082000D02*
X41973500D01*
G01X41635710Y22225000D02*
X41719500D01*
G01X41635710Y22479000D02*
X41719500D01*
G01X41889710Y23939500D02*
Y23832790D01*
G01X42418000Y20320000D02*
X43815000D01*
G01X42164000Y21082000D02*
X42418000Y20828000D01*
Y20574000D01*
G01X42354500Y21844000D02*
X42227500D01*
G01X42354500Y22352000D02*
X42227500D01*
G01X42354500Y22098000D02*
X42227500D01*
G01X42504410Y23050500D02*
Y23155960D01*
X42557700Y23209250D01*
Y23304500D01*
G01X42291000Y23050500D02*
X42227500D01*
G01Y23304500D02*
X42100500D01*
G01X43136790Y21780500D02*
X43073290Y21844000D01*
X42567910D01*
G01X43136790Y22098000D02*
X42567910D01*
G01X43136790Y22352000D02*
X42567910D01*
G01X43243500Y21780500D02*
X43370500D01*
G01X43243500Y22352000D02*
X43370500D01*
G01X43243500Y22098000D02*
X43370500D01*
G54D15*
X37020500Y20828000D03*
X36807090D03*
X36830000Y21145500D03*
X37043410D03*
X38140590Y20574000D03*
X37846000D03*
Y20787410D03*
X38354000Y20574000D03*
X40426590Y21844000D03*
X40386000Y22098000D03*
X40640000Y21844000D03*
X40599410Y22098000D03*
X41211500Y21567090D03*
Y21780500D03*
X42354500Y22098000D03*
X42567910D03*
X42354500Y21844000D03*
X42567910D03*
X42354500Y22352000D03*
X42567910D03*
X42291000Y23050500D03*
X42504410D03*
G54D24*
X38523490Y23114000D03*
X38692510Y23209500D03*
Y23018500D03*
G54D25*
X39624000Y20320000D03*
X40640000Y20574000D03*
X41910000D03*
G54D16*
X36957000Y22479000D03*
Y22372290D03*
X37338000Y19304000D03*
Y19410710D03*
X37846000Y19304000D03*
Y19197290D03*
X38354000Y19558000D03*
X38460710D03*
X40386000Y19812000D03*
X40279290D03*
X40386000Y22352000D03*
X40279290D03*
X40767000Y22606000D03*
X40660290D03*
X40767000Y22479000D03*
X40660290D03*
X40767000Y22288500D03*
X40660290D03*
X40894000Y22733000D03*
Y22839710D03*
X41084500Y22733000D03*
Y22839710D03*
X41656000Y20975290D03*
Y21082000D03*
X41529000Y22479000D03*
X41635710D03*
X41529000Y22225000D03*
X41635710D03*
X41783000Y23939500D03*
X41889710D03*
X42164000Y21082000D03*
X42057290D03*
X43243500Y21780500D03*
X43136790D03*
X43243500Y22098000D03*
X43136790D03*
X43243500Y22352000D03*
X43136790D03*
G54D26*
X39878000Y20320000D03*
X39624000Y20574000D03*
X39878000D03*
X40132000Y20320000D03*
X40386000D03*
X40132000Y20574000D03*
X40386000D03*
X40640000Y20320000D03*
X40894000D03*
Y20574000D03*
X41148000Y20320000D03*
X41402000D03*
X41148000Y20574000D03*
X41402000D03*
X41656000Y20320000D03*
X41910000D03*
X41656000Y20574000D03*
X42164000Y20320000D03*
X42418000D03*
X42164000Y20574000D03*
X42418000D03*
G54D17*
X37592000Y19754900D03*
X37719000D03*
Y20250100D03*
X37592000D03*
X37846000Y19754900D03*
X37973000D03*
X37846000Y20250100D03*
X37973000D03*
G54D27*
X39433500Y23939500D03*
G54D18*
X37710490Y22003000D03*
X37473510D03*
Y22098000D03*
X37710490Y22193000D03*
X37473510D03*
G54D19*
X37592000Y22860000D03*
X38100000D03*
G54D28*
X40903500Y22212000D03*
Y22252000D03*
Y22292010D03*
Y22332010D03*
Y22371990D03*
Y22411990D03*
Y22452000D03*
Y22492000D03*
Y22171990D03*
Y22532010D03*
X41392500D03*
Y22492000D03*
Y22452000D03*
Y22411990D03*
Y22371990D03*
Y22332010D03*
Y22292010D03*
Y22252000D03*
Y22212000D03*
Y22171990D03*
G54D29*
X41328010Y22107500D03*
X41288000D03*
X41248000D03*
X41207990D03*
X41167990D03*
X41128010D03*
X41088010D03*
X41048000D03*
X41008000D03*
X40967990D03*
Y22596500D03*
X41008000D03*
X41048000D03*
X41088010D03*
X41128010D03*
X41167990D03*
X41207990D03*
X41248000D03*
X41288000D03*
X41328010D03*
M02*
